{"asset":{"version":"2.0","generator":"VECTARY"},"scene":0,"extensionsUsed":["KHR_texture_transform"],"nodes":[{"translation":[0,0,0],"scale":[0.001,0.001,0.001],"rotation":[-0.7071067811865475,0,0,0.7071067811865476],"name":"3D Text","mesh":0},{"translation":[0,0,0],"scale":[0.001,0.001,0.001],"rotation":[-0.7071067811865475,0,0,0.7071067811865476],"name":"3D Text 1","mesh":1}],"materials":[{"pbrMetallicRoughness":{"baseColorFactor":[1,1,1,1],"metallicFactor":0,"roughnessFactor":0.2},"name":"3D Text material","emissiveFactor":[0,0,0],"alphaMode":"OPAQUE","doubleSided":false},{"pbrMetallicRoughness":{"baseColorFactor":[0.24313725490196078,0.6705882352941176,0.2980392156862745,1],"metallicFactor":0,"roughnessFactor":0.2},"name":"3D Text material 1","emissiveFactor":[0,0,0],"alphaMode":"OPAQUE","doubleSided":false}],"meshes":[{"primitives":[{"mode":4,"attributes":{"POSITION":1,"NORMAL":2,"TEXCOORD_0":3},"material":0,"indices":0}]},{"primitives":[{"mode":4,"attributes":{"POSITION":5,"NORMAL":6,"TEXCOORD_0":7},"material":1,"indices":4}]}],"accessors":[{"bufferView":0,"byteOffset":0,"componentType":5125,"count":4596,"type":"SCALAR"},{"bufferView":1,"byteOffset":0,"componentType":5126,"count":4596,"max":[174.97802734375,4.652222583675838e-15,75.9765625],"min":[-174.97802734375,-25,-24.0234375],"type":"VEC3"},{"bufferView":2,"byteOffset":0,"componentType":5126,"count":4596,"type":"VEC3"},{"bufferView":3,"byteOffset":0,"componentType":5126,"count":4596,"type":"VEC2"},{"bufferView":4,"byteOffset":0,"componentType":5125,"count":1944,"type":"SCALAR"},{"bufferView":5,"byteOffset":0,"componentType":5126,"count":1944,"max":[87.83000183105469,4.347496128153999e-15,71],"min":[-87.83000183105469,-25,-1],"type":"VEC3"},{"bufferView":6,"byteOffset":0,"componentType":5126,"count":1944,"type":"VEC3"},{"bufferView":7,"byteOffset":0,"componentType":5126,"count":1944,"type":"VEC2"}],"bufferViews":[{"buffer":0,"byteOffset":0,"byteLength":18384,"target":34963},{"buffer":0,"byteOffset":18384,"byteLength":55152,"target":34962},{"buffer":0,"byteOffset":73536,"byteLength":55152,"target":34962},{"buffer":0,"byteOffset":128688,"byteLength":36768,"target":34962},{"buffer":0,"byteOffset":165456,"byteLength":7776,"target":34963},{"buffer":0,"byteOffset":173232,"byteLength":23328,"target":34962},{"buffer":0,"byteOffset":196560,"byteLength":23328,"target":34962},{"buffer":0,"byteOffset":219888,"byteLength":15552,"target":34962}],"scenes":[{"nodes":[0,1],"name":"Project Name"}],"buffers":[{"byteLength":235440,"uri":"ProjectName.bin"}]}